<?xml version="1.0" encoding="UTF-8" standalone="no"?>
<svg
   xmlns:dc="http://purl.org/dc/elements/1.1/"
   xmlns:cc="http://creativecommons.org/ns#"
   xmlns:rdf="http://www.w3.org/1999/02/22-rdf-syntax-ns#"
   xmlns:svg="http://www.w3.org/2000/svg"
   xmlns="http://www.w3.org/2000/svg"
   xmlns:sodipodi="http://sodipodi.sourceforge.net/DTD/sodipodi-0.dtd"
   xmlns:inkscape="http://www.inkscape.org/namespaces/inkscape"
   id="svg1"
   sodipodi:docname="irc.svg"
   viewBox="0 0 60 60"
   sodipodi:version="0.32"
   version="1.0"
   y="0"
   x="0"
   inkscape:version="1.0.1 (3bc2e813f5, 2020-09-07)">
  <defs
     id="defs70" />
  <sodipodi:namedview
     id="base"
     bordercolor="#666666"
     inkscape:pageshadow="2"
     inkscape:window-width="1920"
     pagecolor="#ffffff"
     snaptoguides="true"
     inkscape:zoom="6.9465337"
     inkscape:window-x="0"
     borderopacity="1.0"
     inkscape:cx="37.697545"
     inkscape:cy="21.982518"
     inkscape:window-y="27"
     inkscape:window-height="1025"
     inkscape:pageopacity="0.0"
     showguides="true"
     inkscape:document-rotation="0"
     showgrid="false"
     inkscape:window-maximized="1"
     inkscape:current-layer="svg1" />
  <path
     id="path832"
     style="stroke-width:1pt;fill:#333333"
     transform="matrix(2.6872 -1.389e-16 1.389e-16 2.6872 8.7902 -72.349)"
     d="m11.934 39.677c0-0.621 0.133-1.194 0.399-1.717 0.265-0.528 0.636-0.942 1.113-1.242 0.48-0.301 1.027-0.452 1.64-0.452 0.325 0 0.659 0.04 1.002 0.118 0.344 0.074 0.633 0.203 0.868 0.386 0.234 0.184 0.351 0.432 0.351 0.745 0 0.25-0.074 0.459-0.222 0.626-0.145 0.168-0.327 0.252-0.545 0.252-0.106 0-0.209-0.017-0.311-0.052-0.098-0.035-0.197-0.073-0.299-0.112-0.097-0.043-0.203-0.078-0.316-0.105-0.11-0.027-0.248-0.041-0.416-0.041-0.305 0-0.563 0.072-0.774 0.217-0.207 0.14-0.363 0.332-0.468 0.574-0.102 0.238-0.153 0.506-0.153 0.803 0 0.289 0.051 0.558 0.153 0.808 0.101 0.246 0.248 0.442 0.439 0.586 0.195 0.145 0.426 0.217 0.691 0.217 0.301 0 0.604-0.057 0.909-0.17 0.304-0.113 0.486-0.17 0.545-0.17 0.14 0 0.269 0.041 0.386 0.123 0.118 0.082 0.209 0.19 0.276 0.322 0.07 0.129 0.105 0.262 0.105 0.399 0 0.289-0.127 0.533-0.381 0.732-0.25 0.2-0.548 0.344-0.896 0.434-0.348 0.094-0.662 0.141-0.944 0.141-0.464 0-0.89-0.086-1.277-0.258-0.383-0.172-0.717-0.416-1.002-0.733-0.285-0.32-0.502-0.687-0.65-1.101-0.149-0.418-0.223-0.862-0.223-1.33zm-3.9725 2.314v-4.629c0-0.277 0.0859-0.508 0.2578-0.691 0.1758-0.188 0.4004-0.281 0.6738-0.281 0.2266 0 0.4219 0.06 0.586 0.181 0.1679 0.117 0.2851 0.256 0.3515 0.416 0.4024-0.48 0.8344-0.721 1.2954-0.721 0.253 0 0.476 0.092 0.668 0.276 0.195 0.18 0.292 0.412 0.292 0.697 0 0.293-0.091 0.506-0.275 0.639-0.18 0.133-0.478 0.26-0.896 0.381-0.426 0.121-0.713 0.273-0.862 0.457-0.1482 0.179-0.2224 0.504-0.2224 0.972v2.303c0 0.277-0.0879 0.512-0.2636 0.703-0.1719 0.188-0.3965 0.281-0.6739 0.281-0.2734 0-0.498-0.093-0.6738-0.281-0.1719-0.191-0.2578-0.426-0.2578-0.703zm-2.7012 0v-4.629c0-0.277 0.086-0.508 0.2578-0.691 0.1758-0.188 0.4004-0.281 0.6739-0.281 0.2773 0 0.5019 0.093 0.6738 0.281 0.1758 0.183 0.2637 0.414 0.2637 0.691v4.629c0 0.277-0.0879 0.512-0.2637 0.703-0.1719 0.188-0.3965 0.281-0.6738 0.281-0.2735 0-0.4981-0.093-0.6739-0.281-0.1718-0.191-0.2578-0.426-0.2578-0.703zm-0.1816-7.295c0-0.305 0.1093-0.568 0.3281-0.791 0.2187-0.223 0.4805-0.334 0.7852-0.334 0.3085 0 0.5722 0.11 0.791 0.328 0.2187 0.219 0.3281 0.485 0.3281 0.797 0 0.324-0.1094 0.594-0.3281 0.809-0.2188 0.215-0.4825 0.322-0.791 0.322-0.3047 0-0.5665-0.109-0.7852-0.328-0.2188-0.219-0.3281-0.486-0.3281-0.803zm-6.0352 7.36l0.21093-1.577h-0.45115c-0.1992 0-0.3457-0.056-0.4395-0.17-0.0937-0.117-0.1406-0.255-0.1406-0.416 0-0.16 0.0469-0.294 0.1406-0.404 0.0938-0.113 0.2403-0.17 0.4395-0.17h0.60936l0.19336-1.441h-0.45703c-0.19529 0-0.33989-0.057-0.43359-0.17-0.0938-0.117-0.1406-0.256-0.1406-0.416 0-0.164 0.0468-0.301 0.1406-0.41 0.0937-0.114 0.2383-0.17 0.43359-0.17h0.63281l0.25781-1.881c0.027344-0.199 0.08984-0.354 0.1875-0.463 0.10156-0.109 0.26172-0.164 0.48047-0.164 0.15625 0 0.28516 0.045 0.38672 0.135 0.1016 0.086 0.1523 0.205 0.1523 0.357 0 0.067-0.0156 0.211-0.0468 0.434l-0.21683 1.582h1.084l0.2519-1.881c0.0274-0.199 0.0899-0.354 0.1875-0.463 0.1016-0.109 0.2617-0.164 0.4805-0.164 0.1562 0 0.2851 0.045 0.3867 0.135s0.1523 0.209 0.1523 0.357c0 0.067-0.0156 0.211-0.0468 0.434l-0.2168 1.582h0.457c0.2031 0 0.3496 0.056 0.4395 0.17 0.0937 0.109 0.1406 0.246 0.1406 0.41 0 0.16-0.0469 0.299-0.1406 0.416-0.0938 0.113-0.2403 0.17-0.4395 0.17h-0.6094l-0.1933 1.441h0.457c0.2031 0 0.3496 0.055 0.4394 0.164 0.0899 0.11 0.1348 0.246 0.1348 0.41s-0.0469 0.303-0.1406 0.416c-0.0899 0.114-0.2344 0.17-0.4336 0.17h-0.6387l-0.2519 1.875c-0.0274 0.196-0.0899 0.348-0.1875 0.457-0.0977 0.11-0.2578 0.164-0.4805 0.164-0.1562 0-0.2871-0.043-0.3926-0.128-0.1015-0.09-0.1523-0.211-0.1523-0.364 0-0.078 0.0176-0.22 0.0527-0.427l0.2168-1.577h-1.084l-0.25193 1.875c-0.02734 0.2-0.09179 0.354-0.19336 0.463-0.097653 0.106-0.25781 0.158-0.48047 0.158-0.15234 0-0.28125-0.043-0.38671-0.128-0.10157-0.09-0.15233-0.211-0.15233-0.364 0-0.078 0.01756-0.22 0.05272-0.427zm2.6719-2.737l0.1934-1.441h-1.0899l-0.19335 1.441h1.0898z" />
  <metadata
     id="metadata67">
    <rdf:RDF>
      <cc:Work>
        <dc:format>image/svg+xml</dc:format>
        <dc:type
           rdf:resource="http://purl.org/dc/dcmitype/StillImage" />
        <cc:license
           rdf:resource="http://creativecommons.org/licenses/publicdomain/" />
        <dc:publisher>
          <cc:Agent
             rdf:about="http://openclipart.org/">
            <dc:title>Openclipart</dc:title>
          </cc:Agent>
        </dc:publisher>
        <dc:title>ftirc online</dc:title>
        <dc:date>2011-01-31T02:01:37</dc:date>
        <dc:description>Originally uploaded by Danny Allen for OCAL 0.18 this icon is part of the flat theme</dc:description>
        <dc:source>https://openclipart.org/detail/112897/ftirc-online-by-anonymous</dc:source>
        <dc:creator>
          <cc:Agent>
            <dc:title>Anonymous</dc:title>
          </cc:Agent>
        </dc:creator>
        <dc:subject>
          <rdf:Bag>
            <rdf:li>flat</rdf:li>
            <rdf:li>icon</rdf:li>
            <rdf:li>theme</rdf:li>
          </rdf:Bag>
        </dc:subject>
      </cc:Work>
      <cc:License
         rdf:about="http://creativecommons.org/licenses/publicdomain/">
        <cc:permits
           rdf:resource="http://creativecommons.org/ns#Reproduction" />
        <cc:permits
           rdf:resource="http://creativecommons.org/ns#Distribution" />
        <cc:permits
           rdf:resource="http://creativecommons.org/ns#DerivativeWorks" />
      </cc:License>
    </rdf:RDF>
  </metadata>
  <path
     style="fill:#000000;stroke-width:0.143957"
     d="M 6.6978232,42.769733 C 6.1274976,42.370261 6.1053237,42.04378 6.4682978,39.390292 c 0.1887094,-1.379541 0.3447795,-2.621622 0.3468225,-2.76018 0.00303,-0.205815 -0.1240938,-0.251925 -0.6945872,-0.251925 -0.3840659,0 -0.9042783,-0.0718 -1.1560275,-0.159564 -1.150796,-0.40117 -1.150796,-2.302792 0,-2.703962 0.2517492,-0.08776 0.8678982,-0.159564 1.3692199,-0.159564 1.0434393,0 0.9403951,0.160205 1.2037114,-1.871437 0.087226,-0.672998 0.1951647,-1.434169 0.2398646,-1.691491 l 0.081272,-0.467859 h -1.010921 c -0.9521223,0 -1.032598,-0.02576 -1.3836096,-0.442916 C 5.191454,28.557441 5.092214,28.277119 5.0945553,27.837708 c 0.00583,-1.094167 0.6795602,-1.525132 2.3966354,-1.533055 0.8747795,-0.004 0.7616997,0.280594 1.2024019,-3.026524 0.1635391,-1.227231 0.368024,-2.411671 0.4544107,-2.632089 0.3836002,-0.978766 1.7896057,-1.323799 2.4999247,-0.61348 0.443297,0.443297 0.451463,0.902238 0.06543,3.677439 -0.158352,1.13841 -0.287913,2.187149 -0.287913,2.330529 0,0.235065 0.148584,0.260691 1.511545,0.260691 0.83135,0 1.511546,-0.05785 1.511546,-0.128554 0,-0.0707 0.158891,-1.298834 0.353093,-2.729178 0.356055,-2.622444 0.57147,-3.344697 1.0785,-3.616052 0.366067,-0.195913 1.201407,-0.188606 1.646972,0.01441 0.673964,0.307078 0.724677,0.741375 0.387918,3.322006 -0.168349,1.290085 -0.34213,2.523756 -0.386179,2.74149 -0.07617,0.376487 -0.05308,0.396049 0.471186,0.399315 1.487387,0.0093 2.19778,0.486902 2.203576,1.481586 0.0069,1.183633 -0.431354,1.527511 -1.954341,1.533492 l -1.165781,0.0046 -0.237797,1.783178 c -0.32617,2.445862 -0.375663,2.247609 0.561114,2.247609 0.4394,0 0.98091,0.09412 1.203355,0.209146 0.823906,0.426058 0.939742,1.714348 0.215346,2.39504 -0.316762,0.297652 -0.538747,0.354029 -1.562968,0.396934 l -1.193769,0.05001 -0.31674,2.397256 c -0.385826,2.920147 -0.507045,3.413362 -0.947055,3.853371 -0.495899,0.495899 -1.661924,0.490505 -2.162433,-0.01001 -0.435303,-0.435303 -0.435272,-0.452915 0.0064,-3.618341 0.197885,-1.418087 0.359837,-2.594534 0.359892,-2.614328 5.6e-5,-0.0198 -0.67886,-0.03599 -1.508702,-0.03599 -1.44764,0 -1.5116857,0.01313 -1.5799243,0.323903 -0.039117,0.178146 -0.206076,1.360391 -0.3710202,2.627209 -0.3349194,2.572279 -0.4517284,2.980321 -0.9698317,3.387861 -0.4431501,0.348583 -1.4199906,0.375876 -1.8815707,0.05257 z m 6.8052798,-9.738539 c 0.03726,-0.178146 0.139437,-0.906927 0.22706,-1.619512 0.08762,-0.712586 0.193079,-1.473757 0.234348,-1.691492 l 0.07503,-0.39588 H 12.47299 10.906439 l -0.180304,1.475556 c -0.09917,0.811555 -0.217403,1.718483 -0.262745,2.015393 l -0.08244,0.539838 h 1.527201 c 1.46772,0 1.52984,-0.01262 1.594947,-0.323903 z"
     id="path72" />
  <path
     style="fill:#000000;stroke-width:0.143957"
     d="m 24.309573,23.581033 c -1.512083,-0.700071 -2.189137,-2.398695 -1.526537,-3.829843 0.93505,-2.019612 3.490837,-2.395376 4.874559,-0.716681 1.931269,2.342964 -0.621119,5.809039 -3.348022,4.546524 z"
     id="path74" />
  <path
     style="fill:#000000;stroke-width:0.143957"
     d="m 24.267344,42.759979 c -0.273291,-0.13469 -0.639136,-0.514392 -0.863741,-0.896452 l -0.38964,-0.662791 v -6.909921 c 0,-6.507435 0.01598,-6.942113 0.274422,-7.462605 0.757623,-1.525842 2.889314,-1.729378 4.021403,-0.383967 0.204221,0.242703 0.409274,0.649908 0.455674,0.9049 0.0464,0.254992 0.06517,3.5458 0.04172,7.312907 l -0.04265,6.849286 -0.403322,0.528646 c -0.221828,0.290755 -0.591098,0.625748 -0.820602,0.744429 -0.545535,0.282108 -1.675944,0.269958 -2.273265,-0.02443 z"
     id="path76" />
  <path
     style="fill:#000000;stroke-width:0.143957"
     d="m 31.491365,42.725991 c -0.246352,-0.150222 -0.602644,-0.490078 -0.791762,-0.755236 l -0.343849,-0.482105 -0.04265,-6.837943 c -0.02345,-3.760868 -0.0047,-7.046572 0.04172,-7.301564 0.10167,-0.558732 0.66779,-1.263855 1.260992,-1.570612 0.551238,-0.285056 1.688626,-0.280185 2.249071,0.0096 0.237553,0.122844 0.643889,0.475838 0.902969,0.784431 l 0.471054,0.561079 0.638509,-0.62949 c 1.237914,-1.220428 2.685522,-1.623408 3.83419,-1.067347 0.947555,0.458703 1.436929,1.240493 1.433343,2.289811 -0.0018,0.520139 -0.09112,0.938632 -0.251958,1.180227 -0.31492,0.473037 -1.288501,0.995067 -2.76358,1.481819 -1.592452,0.525484 -2.221867,0.915757 -2.578493,1.598815 -0.279947,0.536192 -0.305595,0.873093 -0.372619,4.894528 l -0.07198,4.3187 -0.390972,0.665062 c -0.238826,0.406256 -0.583414,0.756383 -0.885496,0.899729 -0.674411,0.32003 -1.779467,0.301346 -2.338492,-0.03954 z"
     id="path78" />
  <path
     style="fill:#000000;stroke-width:0.143957"
     d="m 48.206383,43.34062 c -3.647313,-0.559533 -6.333313,-3.251477 -7.067422,-7.083064 -0.52107,-2.719657 -0.02289,-5.256901 1.480662,-7.541007 0.350335,-0.532209 0.940919,-1.230719 1.312408,-1.552246 1.325224,-1.146989 3.617186,-2.005644 5.37116,-2.012238 2.129218,-0.008 4.668902,0.850235 5.416519,1.830412 0.341014,0.447093 0.396595,0.654237 0.396595,1.478092 0,0.825636 -0.05527,1.03059 -0.399664,1.482117 -0.262097,0.343626 -0.604212,0.585271 -0.993921,0.70203 -0.53941,0.161611 -0.698381,0.141162 -1.722403,-0.221557 -2.153347,-0.762739 -3.637665,-0.653771 -4.77896,0.350837 -1.023989,0.901351 -1.306333,1.645238 -1.312822,3.458872 -0.0052,1.464373 0.01476,1.565217 0.49839,2.513673 0.406173,0.796547 0.641327,1.072898 1.213022,1.425536 0.655398,0.404268 0.802766,0.43595 1.943415,0.417798 0.92459,-0.01471 1.502412,-0.114034 2.303142,-0.395881 1.506671,-0.53033 1.933929,-0.502352 2.606991,0.170711 0.889242,0.889241 0.946286,2.182459 0.13693,3.104263 -0.529441,0.603 -1.822106,1.29516 -2.973012,1.591902 -0.947611,0.244326 -2.719958,0.388836 -3.43103,0.27975 z"
     id="path80" />
</svg>
